<?xml version="1.0" standalone="no"?>
<!DOCTYPE svg PUBLIC "-//W3C//DTD SVG 20010904//EN"
 "http://www.w3.org/TR/2001/REC-SVG-20010904/DTD/svg10.dtd">
<svg version="1.0" xmlns="http://www.w3.org/2000/svg"
 width="233.000000pt" height="233.000000pt" viewBox="0 0 233.000000 233.000000"
 preserveAspectRatio="xMidYMid meet">
<metadata>
Created by potrace 1.14, written by Peter Selinger 2001-2017
</metadata>
<g transform="translate(0.000000,233.000000) scale(0.100000,-0.100000)"
fill="#000000" stroke="none">
<path d="M0 1165 l0 -1165 1165 0 1165 0 0 1165 0 1165 -1165 0 -1165 0 0
-1165z m1524 829 c13 -5 16 -25 16 -110 l0 -104 -214 0 -213 0 -6 -67 c-4 -38
-7 -150 -7 -250 l0 -183 185 0 185 0 2 -52 c5 -112 5 -134 0 -150 -4 -16 -21
-18 -182 -18 l-177 0 -7 -37 c-3 -21 -6 -190 -6 -375 l0 -338 -125 0 -125 0 0
826 c0 538 4 833 11 845 9 18 26 19 329 19 175 0 325 -3 334 -6z m333 -567
c59 -42 185 -132 278 -199 l170 -124 3 -69 2 -70 -202 -145 c-111 -80 -253
-180 -314 -223 l-112 -77 -7 74 c-4 41 -4 100 0 133 l7 58 156 108 c87 59 168
116 180 125 l24 18 -187 129 -188 129 7 100 c3 56 11 103 18 107 24 15 61 -1
165 -74z m-1238 61 c11 -10 12 -10 7 -1 -5 9 -2 11 9 7 13 -5 15 -23 13 -107
l-3 -100 -174 -121 c-96 -67 -174 -126 -175 -131 0 -6 80 -66 177 -134 l177
-123 0 -130 0 -129 -29 17 c-16 9 -159 110 -317 224 l-289 207 -3 65 -3 65
213 150 c387 273 372 264 397 241z"/>
</g>
</svg>
